<svg width="16" height="16" viewBox="0 0 16 16" fill="none" xmlns="http://www.w3.org/2000/svg">
<path fill-rule="evenodd" clip-rule="evenodd" d="M12.0202 4.02018C12.2155 3.82492 12.2155 3.50833 12.0202 3.31307C11.8249 3.11781 11.5084 3.11781 11.3131 3.31307L7.66666 6.95952L4.02021 3.31307C3.82495 3.11781 3.50837 3.11781 3.3131 3.31307C3.11784 3.50833 3.11784 3.82492 3.3131 4.02018L6.95955 7.66663L3.3131 11.3131C3.11784 11.5083 3.11784 11.8249 3.3131 12.0202C3.50837 12.2154 3.82495 12.2154 4.02021 12.0202L7.66666 8.37373L11.3131 12.0202C11.5084 12.2154 11.8249 12.2154 12.0202 12.0202C12.2155 11.8249 12.2155 11.5083 12.0202 11.3131L8.37376 7.66663L12.0202 4.02018Z" fill="#0D7AD9"/>
</svg>
